/* XPM */
static char *small_no1698573479[] = {
/* columns rows colors chars-per-pixel */
"64 64 55 1 ",
"  c #161716",
". c #171917",
"X c #181A17",
"o c #1C1E1D",
"O c #1E201F",
"+ c #1D1F20",
"@ c #1F2121",
"# c #222424",
"$ c #272927",
"% c #252628",
"& c #26292A",
"* c #2A2B2D",
"= c #2E302F",
"- c #2D2E31",
"; c #2E3133",
": c #323335",
"> c #343539",
", c #38373D",
"< c #36393D",
"1 c #393A3E",
"2 c #373B40",
"3 c #3C3D42",
"4 c #413F45",
"5 c #3E4045",
"6 c #3F4249",
"7 c #424146",
"8 c #45444B",
"9 c #49464C",
"0 c #47484E",
"q c #49494F",
"w c #464750",
"e c #484750",
"r c #474952",
"t c #4C4C53",
"y c #4E4F58",
"u c #504F56",
"i c #514F58",
"p c #4E5056",
"a c #4E5159",
"s c #505057",
"d c #52525B",
"f c #58575E",
"g c #56585F",
"h c #555661",
"j c #595762",
"k c #565963",
"l c #5A5B64",
"z c #5C5C68",
"x c #615F6A",
"c c #5D616B",
"v c #62636D",
"b c #666670",
"n c #666973",
"m c #686976",
"M c #797D89",
/* pixels */
"8999u4u,ijdddifddfdddu8t:=pttqttsutytt,#0000t0rtdrtg0q98r03$4479",
"88944t4,ifiidiuutsuuu9uu,;stttrudduytt,Or0rtppppp0qdyy88883%4444",
"9449494:ddiiuuuuutqqq7ud1=ytyrypsdyttt7#rpaaaaaapw0etsttya3#9484",
"4944e44:iiuuuuu9qqq9tt9g:*rttyyddsytyp8O0pgaptpaddytr0ttty7@9444",
"9ue4494-ddtttut9rqqrddhv1*tttaypypaqtp3@0kdtttqptappatq09r5#9844",
":=**:,-%013113>1<>153>:%##77731,:;*$#&#O=5<775779trtw3>>>57#3q74",
",,434,::>>::=#$*&**&-:>3334873,>:&#;***-========;;;;;*&$O##&=:,,",
"xjjjjhdddddd8>dt8wt99glhgghjzkgtq>*3835556888099800q0887-tadgfjj",
"uuutyddddaid,>crrtdtdqtssddgfgfdd;$3ttqqqqqqqqpq9tu9ttts2yzadyyy",
"yyttqrtttttd,>lqqqtsgptpududddggf:$300qqqqqqqqqputttttts>rlyyytt",
"yuttrqqqrttd1>lqqqqqtq00rddttddgh:$<0009qqqqqqqqtttttqtp>6kdpyyd",
"7qsytyreertd1>lrqqtqttttuuyuyddyg>$3t0988q9qqqqqt9tttttt>8addpst",
"99ruytrqeryd1>kqqqtqutstuytysgddy>%3pq9989q9q9qq99rqqttt:8yyydsy",
"wr9tittrttyg1<lttttptttpudsyysi8,-&3s00088q8988099q9qqrt;9ryysdt",
"trrrittttydd<<cttppssssttysssppt8&#7dqqq87988880q899q9q0*rtsisuu",
"tyttttttttag,<cptptpsdddsyudspyt8:$7s80q9988787888990qq8*9uydsud",
"tyyyrtttyyil<>caytttppaddddspqqp0>&7s0waqpq8888887889007*8gsspsi",
"uuayyyuuihki>:zjttppttqtpdsdsqt85:#7dqprspstpt85788qttr3$3lddysd",
"4edar98522:#%-67111123112,1,>::*&#@-::>;311>:<<31,::333-#:q53777",
"*--:::-*--**>:::::>>:;;::>>>:#><<33578668675:$>31>:::-::;>--*&#&",
"zjhhhaaaaz66ddddayaaatttttw8;;dkdhhhhdhdggaa:3lzlgdta8hhdlgkd1&a",
"trrr99aa8936cqtrqttppptpttpr;<ktwrrw898w0pdg>7dttttt6dqqutrqg>@h",
"w99988rt87<5z889tttpyypptpyt;2ktrtrrt999qugl,3dttyugdqr99eqqt<@t",
"00e988ew88>5lq99tptyytyttttd:2gptr7yr9r9tdlg32dtptsgartt9qqqr5@w",
"qrqqe9t448>3gttt09wyttt9t9ui:5aputqut9r9tilj3,dtstgssqqtttqqt1#7",
"ydiutttt48>2liiur88yttttttui:3ddyttr99rryigd3:stppltptpyyytqq,O3",
"djdhiduu8e:>zdiut85rqttttttd>5kdsytttrttyddy,:dydddyutyttuttt5o3",
"jxzxzdjirt::ziut884tttyyttuj,8lgduuytyttpddd1*rudadyuutuuuuuy8o,",
"xxxjxjjjyi::fdduutuyttytttuj30kfdpdututydddd3%7llvdyuuuyuututqo<",
"jxzxjxzzzd:-gjddiiuuyisdidgv53frysustutyrtyy3*aycldsusuussqqrqo>",
"tuuttuuist**rjdddidddxvxjdyy>>5>:,11,::-----*%ppldkzvjsut8173r#*",
"ooo@@@@#$$OO=::>>>;*&$######@#&#OOO#######@o..Oo***$##OOooo#$*&#",
"dgt8gduuyytsdgt#233348434444,,:#9czhaatyttyttt8770009trtp3#ttddh",
"ertiuyttryytttso4hiiitt94t44444$aMdsayrrtqtttrtqptyttptqt:$p0rrw",
"yyytetttytuyytt#eiettet9t949944*6nadsusytttytqrqtq0qtqytt7$ptyyt",
"dyutrer89tryttq*4etttt999999u44$5kdddsyrtrtrtq877qqqqq9t00&pussy",
"uuyytrtty09wttr;eeiiite99u99994$<ddddgy880ttt09788qssurt0p*tyddy",
"sytyuttuqqt5qpt*ettii9999499949$3aytqttrq0rrqqqqttttyusyyp&rqtps",
"upytyrttt9rtq78*rtituttt9949494#8t07tttyttttqq0q0rtrrssutp-98tyy",
"ryqtyiiiutrttq8$tttitittt994994$80999tutpttytttttwttyssytd*99ttr",
"qqqqryuddatrttt$rtyyttytte99944O658wrptpysptttprtrttystsqd&r9rqe",
"9trwrusussyrrqt#ertitttitte9994#y68tytsuyttpppyttttrttqqqd&yr99t",
"9qqtyadypyyyuuy#etiiititttut949#y58rryaasssssdppttytttqtpq*prreq",
"74788789rw861>*o4ietitttytttutuo0;:377587787677543358qtuq>$0yw97",
"$#&$#&&####@%##.**--::2>>,:::*& &@####&&$*&&&#####O#$&*:=#O&***&",
"55#;55556366333233>+%:--=:::::>:<1<<;#680rrrrr05*@::::,1:::::>11",
"0a:0hadkzhhadhhteet#2ye48889990t0068>>vdr088wrcc&$d898uq98887879",
"88:5222543367684884@2yttqq9trsgdaapt7>a88855551c&;s8779q77778877",
"78:8,3557885868799q#<889q9qqusstsqqq5:a98874733t;&a87879qq788984",
"78;8,35778857878qq9#10,899qtututputt5;y889877450>&t87787qq978788",
"88:034778880008qqqt#3q579quuuttptsyu3:p099888779<&r0887777988888",
"88:037775880rqqqqrt#5q379uuuutstusdd5>t099888778>@r9888778788988",
"88;83788889eqttq0rt$3r4789quutyusddj7:t898887887;&y9888879788898",
"87=835890r9eqttrtyq$3q47989ttuuusddh5;p099898877:&ir989877778997",
"97:p7880qqttrrqtrut#1q718899yuuudhjj5*qqqq098877;&ay999897977989",
"88:pt8999q9ttqtuya0@3q9438qtuuushdgj3*8qtr088877;&twt99878979888",
"4,:4444479trtt07e8,#>5441;50qttte896;&:>11:>>1,>%#;-==*-=::,,113",
"@$#$@#$#@@#@##&&%%#o#oooO.O@##@ooo++oo+#OO##OOO@@.oooo#@OOOO#@OO",
"94u99u9><hdddddddhiudghg5Orar08tttyttwr:<kapyytr78ahd9yrusq&tddy",
"444494u=wmytpdddfddddddd3#80888q989yat0#5pr8888trt88888873t&8988",
"444u94i:tvdfdgdgfdhfddsf5*80999999tqrq5#6tp088wwr9888844444$9994",
"4494u99,edffghhdihfdfdss>*0trqqq0ttqqt3#5wtw8887788694ww9u4#8499",
"9999999>ydfddggdhfhdfuss>*aytqqrwyttqt7#t95r85586888tefifx9$9494",
"9999999>yjdddddfhdhffutp:;attqttqytppt3Ow888taywytwtthuu994$4999"
};
